<svg width="800" height="600" viewBox="0 0 800 600" fill="none" xmlns="http://www.w3.org/2000/svg">
  <rect width="800" height="600" fill="#FFFBEB"/>
  <rect x="200" y="150" width="400" height="300" rx="16" fill="#FEF3C7"/>
  <rect x="220" y="180" width="120" height="80" rx="8" fill="#F59E0B"/>
  <rect x="230" y="195" width="100" height="12" rx="6" fill="#FFFFFF"/>
  <rect x="230" y="215" width="80" height="10" rx="5" fill="#FFFFFF" opacity="0.8"/>
  <rect x="230" y="230" width="90" height="10" rx="5" fill="#FFFFFF" opacity="0.8"/>
  <rect x="230" y="245" width="70" height="10" rx="5" fill="#FFFFFF" opacity="0.8"/>
  <rect x="360" y="180" width="120" height="80" rx="8" fill="#F59E0B"/>
  <rect x="370" y="195" width="100" height="12" rx="6" fill="#FFFFFF"/>
  <rect x="370" y="215" width="80" height="10" rx="5" fill="#FFFFFF" opacity="0.8"/>
  <rect x="370" y="230" width="90" height="10" rx="5" fill="#FFFFFF" opacity="0.8"/>
  <rect x="370" y="245" width="70" height="10" rx="5" fill="#FFFFFF" opacity="0.8"/>
  <rect x="500" y="180" width="80" height="80" rx="8" fill="#F59E0B"/>
  <rect x="510" y="195" width="60" height="12" rx="6" fill="#FFFFFF"/>
  <rect x="510" y="215" width="50" height="10" rx="5" fill="#FFFFFF" opacity="0.8"/>
  <rect x="510" y="230" width="60" height="10" rx="5" fill="#FFFFFF" opacity="0.8"/>
  <rect x="510" y="245" width="40" height="10" rx="5" fill="#FFFFFF" opacity="0.8"/>
  <!-- Connection lines -->
  <line x1="340" y1="220" x2="360" y2="220" stroke="#D97706" stroke-width="3"/>
  <line x1="480" y1="220" x2="500" y2="220" stroke="#D97706" stroke-width="3"/>
  <!-- Query visualization -->
  <rect x="220" y="290" width="360" height="40" rx="8" fill="#FFFFFF"/>
  <text x="230" y="310" fill="#D97706" font-family="Monaco, Consolas, monospace" font-size="12">SELECT * FROM projects WHERE featured = true</text>
  <rect x="220" y="340" width="360" height="40" rx="8" fill="#FFFFFF"/>
  <text x="230" y="360" fill="#D97706" font-family="Monaco, Consolas, monospace" font-size="12">JOIN skills ON projects.id = skills.project_id</text>
  <text x="400" y="480" text-anchor="middle" fill="#D97706" font-family="system-ui, -apple-system, sans-serif" font-size="18" font-weight="600">Database</text>
  <text x="400" y="500" text-anchor="middle" fill="#F59E0B" font-family="system-ui, -apple-system, sans-serif" font-size="14">PostgreSQL • MongoDB • Prisma • SQL</text>
</svg>
