<svg width="800" height="450" viewBox="0 0 800 450" xmlns="http://www.w3.org/2000/svg">
  <!-- Background -->
  <rect width="800" height="450" fill="#1e293b"/>
  
  <!-- Card -->
  <rect x="50" y="50" width="700" height="350" rx="12" fill="#ffffff"/>
  
  <!-- Header -->
  <rect x="70" y="70" width="660" height="40" rx="8" fill="#f1f5f9"/>
  <circle cx="95" cy="90" r="6" fill="#ef4444"/>
  <circle cx="115" cy="90" r="6" fill="#f59e0b"/>
  <circle cx="135" cy="90" r="6" fill="#10b981"/>
  
  <!-- Sidebar -->
  <rect x="70" y="130" width="150" height="250" rx="8" fill="#f8fafc"/>
  <rect x="85" y="150" width="120" height="12" rx="6" fill="#3b82f6"/>
  <rect x="85" y="175" width="90" height="8" rx="4" fill="#cbd5e1"/>
  <rect x="85" y="195" width="100" height="8" rx="4" fill="#cbd5e1"/>
  <rect x="85" y="215" width="80" height="8" rx="4" fill="#cbd5e1"/>
  
  <!-- Main content -->
  <rect x="240" y="130" width="490" height="250" rx="8" fill="#ffffff"/>
  
  <!-- Stats -->
  <rect x="260" y="150" width="140" height="60" rx="8" fill="#dbeafe"/>
  <text x="330" y="185" font-family="system-ui" font-size="18" font-weight="700" fill="#1e40af" text-anchor="middle">$47.2k</text>
  
  <rect x="420" y="150" width="140" height="60" rx="8" fill="#dcfce7"/>
  <text x="490" y="185" font-family="system-ui" font-size="18" font-weight="700" fill="#15803d" text-anchor="middle">1,429</text>
  
  <rect x="580" y="150" width="140" height="60" rx="8" fill="#fef3c7"/>
  <text x="650" y="185" font-family="system-ui" font-size="18" font-weight="700" fill="#d97706" text-anchor="middle">94.5%</text>
  
  <!-- Chart area -->
  <rect x="260" y="230" width="460" height="120" rx="8" fill="#f8fafc"/>
  
  <!-- Chart bars -->
  <rect x="290" y="280" width="12" height="50" rx="6" fill="#3b82f6"/>
  <rect x="310" y="270" width="12" height="60" rx="6" fill="#10b981"/>
  <rect x="330" y="275" width="12" height="55" rx="6" fill="#f59e0b"/>
  <rect x="350" y="265" width="12" height="65" rx="6" fill="#8b5cf6"/>
  <rect x="370" y="272" width="12" height="58" rx="6" fill="#ec4899"/>
  <rect x="390" y="278" width="12" height="52" rx="6" fill="#06b6d4"/>
  <rect x="410" y="270" width="12" height="60" rx="6" fill="#84cc16"/>
  <rect x="430" y="275" width="12" height="55" rx="6" fill="#f97316"/>
  <rect x="450" y="280" width="12" height="50" rx="6" fill="#6366f1"/>
  <rect x="470" y="272" width="12" height="58" rx="6" fill="#14b8a6"/>
  <rect x="490" y="268" width="12" height="62" rx="6" fill="#a855f7"/>
  <rect x="510" y="275" width="12" height="55" rx="6" fill="#ef4444"/>
  <rect x="530" y="270" width="12" height="60" rx="6" fill="#3b82f6"/>
  <rect x="550" y="278" width="12" height="52" rx="6" fill="#10b981"/>
  <rect x="570" y="272" width="12" height="58" rx="6" fill="#f59e0b"/>
  <rect x="590" y="275" width="12" height="55" rx="6" fill="#8b5cf6"/>
  <rect x="610" y="280" width="12" height="50" rx="6" fill="#ec4899"/>
  <rect x="630" y="270" width="12" height="60" rx="6" fill="#06b6d4"/>
  <rect x="650" y="275" width="12" height="55" rx="6" fill="#84cc16"/>
  <rect x="670" y="278" width="12" height="52" rx="6" fill="#f97316"/>
  
  <!-- Shopping cart icon -->
  <g transform="translate(400, 25)">
    <circle cx="0" cy="0" r="18" fill="#3b82f6" opacity="0.2"/>
    <path d="M-6 -4 L4 -4 L3 2 L-5 2 Z" fill="none" stroke="#3b82f6" stroke-width="2" stroke-linecap="round"/>
    <circle cx="-2" cy="5" r="1" fill="#3b82f6"/>
    <circle cx="1" cy="5" r="1" fill="#3b82f6"/>
    <path d="M-6 -4 L-8 -8" stroke="#3b82f6" stroke-width="2" stroke-linecap="round"/>
  </g>
  
  <!-- Title -->
  <text x="400" y="430" font-family="system-ui" font-size="16" font-weight="600" fill="white" text-anchor="middle">E-Commerce Dashboard</text>
</svg>
