<svg width="800" height="450" viewBox="0 0 800 450" xmlns="http://www.w3.org/2000/svg">
  <!-- Background with subtle gradient -->
  <defs>
    <linearGradient id="bg" x1="0%" y1="0%" x2="100%" y2="100%">
      <stop offset="0%" style="stop-color:#0f172a;stop-opacity:1" />
      <stop offset="100%" style="stop-color:#1e293b;stop-opacity:1" />
    </linearGradient>
    <linearGradient id="accent" x1="0%" y1="0%" x2="100%" y2="100%">
      <stop offset="0%" style="stop-color:#3b82f6;stop-opacity:0.1" />
      <stop offset="100%" style="stop-color:#8b5cf6;stop-opacity:0.05" />
    </linearGradient>
  </defs>
  
  <rect width="800" height="450" fill="url(#bg)"/>
  <rect width="800" height="450" fill="url(#accent)"/>
  
  <!-- Main dashboard mockup -->
  <rect x="20" y="30" width="760" height="390" rx="12" fill="#ffffff" opacity="0.97"/>
    <!-- Top navigation bar -->
  <rect x="40" y="50" width="720" height="40" rx="8" fill="#f8fafc"/>
  <circle cx="60" cy="70" r="4" fill="#ef4444"/>
  <circle cx="80" cy="70" r="4" fill="#f59e0b"/>
  <circle cx="100" cy="70" r="4" fill="#10b981"/>
  
  <!-- Search bar -->
  <rect x="200" y="58" width="300" height="24" rx="12" fill="#f1f5f9"/>
  <circle cx="480" cy="70" r="8" fill="#3b82f6" opacity="0.2"/>
  <path d="M476 66 L484 74 M484 66 L476 74" stroke="#3b82f6" stroke-width="1.5" stroke-linecap="round"/>
  
  <!-- Profile area -->
  <circle cx="720" cy="70" r="14" fill="#e5e7eb"/>
  <circle cx="720" cy="68" r="5" fill="#6b7280"/>
  <path d="M712 76 Q720 73 728 76" stroke="#6b7280" stroke-width="1.5" fill="none"/>
  
  <!-- Sidebar -->
  <rect x="40" y="110" width="200" height="290" rx="8" fill="#f8fafc"/>
    <!-- Sidebar menu items -->
  <rect x="55" y="130" width="170" height="22" rx="4" fill="#3b82f6" opacity="0.1"/>
  <rect x="65" y="137" width="12" height="8" rx="2" fill="#3b82f6"/>
  <rect x="85" y="137" width="100" height="8" rx="2" fill="#3b82f6"/>
  
  <rect x="55" y="160" width="170" height="18" rx="4" fill="transparent"/>
  <rect x="65" y="166" width="10" height="6" rx="1" fill="#6b7280"/>
  <rect x="85" y="166" width="80" height="6" rx="2" fill="#9ca3af"/>
  
  <rect x="55" y="185" width="170" height="18" rx="4" fill="transparent"/>
  <rect x="65" y="191" width="10" height="6" rx="1" fill="#6b7280"/>
  <rect x="85" y="191" width="70" height="6" rx="2" fill="#9ca3af"/>
  
  <rect x="55" y="210" width="170" height="18" rx="4" fill="transparent"/>
  <rect x="65" y="216" width="10" height="6" rx="1" fill="#6b7280"/>
  <rect x="85" y="216" width="90" height="6" rx="2" fill="#9ca3af"/>
  
  <!-- Main content area -->
  <rect x="260" y="110" width="500" height="290" rx="8" fill="#ffffff"/>
  
  <!-- Stats cards -->
  <rect x="280" y="130" width="140" height="60" rx="8" fill="#dbeafe"/>
  <text x="350" y="150" font-family="system-ui" font-size="12" font-weight="600" fill="#1e40af" text-anchor="middle">Revenue</text>
  <text x="350" y="175" font-family="system-ui" font-size="18" font-weight="700" fill="#1e40af" text-anchor="middle">$47.2K</text>
  
  <rect x="440" y="130" width="140" height="60" rx="8" fill="#dcfce7"/>
  <text x="510" y="150" font-family="system-ui" font-size="12" font-weight="600" fill="#15803d" text-anchor="middle">Orders</text>
  <text x="510" y="175" font-family="system-ui" font-size="18" font-weight="700" fill="#15803d" text-anchor="middle">1,429</text>
  
  <rect x="600" y="130" width="140" height="60" rx="8" fill="#fef3c7"/>
  <text x="670" y="150" font-family="system-ui" font-size="12" font-weight="600" fill="#d97706" text-anchor="middle">Growth</text>
  <text x="670" y="175" font-family="system-ui" font-size="18" font-weight="700" fill="#d97706" text-anchor="middle">+24.5%</text>
    <!-- Chart area -->
  <rect x="280" y="210" width="460" height="140" rx="8" fill="#f8fafc"/>
  <text x="510" y="230" font-family="system-ui" font-size="14" font-weight="600" fill="#374151" text-anchor="middle">Sales Analytics</text>
  
  <!-- Chart bars -->
  <rect x="300" y="320" width="16" height="25" rx="2" fill="#3b82f6"/>
  <rect x="325" y="315" width="16" height="30" rx="2" fill="#10b981"/>
  <rect x="350" y="318" width="16" height="27" rx="2" fill="#f59e0b"/>
  <rect x="375" y="312" width="16" height="33" rx="2" fill="#8b5cf6"/>
  <rect x="400" y="316" width="16" height="29" rx="2" fill="#ec4899"/>
  <rect x="425" y="320" width="16" height="25" rx="2" fill="#06b6d4"/>
  <rect x="450" y="314" width="16" height="31" rx="2" fill="#84cc16"/>
  <rect x="475" y="318" width="16" height="27" rx="2" fill="#f97316"/>
  <rect x="500" y="315" width="16" height="30" rx="2" fill="#6366f1"/>
  <rect x="525" y="318" width="16" height="27" rx="2" fill="#14b8a6"/>
  <rect x="550" y="312" width="16" height="33" rx="2" fill="#a855f7"/>
  <rect x="575" y="318" width="16" height="27" rx="2" fill="#ef4444"/>
  <rect x="600" y="315" width="16" height="30" rx="2" fill="#06b6d4"/>
  <rect x="625" y="320" width="16" height="25" rx="2" fill="#10b981"/>
  <rect x="650" y="316" width="16" height="29" rx="2" fill="#f59e0b"/>
  <rect x="675" y="318" width="16" height="27" rx="2" fill="#8b5cf6"/>
  <rect x="700" y="314" width="16" height="31" rx="2" fill="#ec4899"/>
  
  <!-- Shopping cart icon in center -->
  <g transform="translate(510, 270)">
    <circle cx="0" cy="0" r="24" fill="#3b82f6" opacity="0.1"/>
    <path d="M-8 -6 L8 -6 L6 6 L-6 6 Z" fill="none" stroke="#3b82f6" stroke-width="2" stroke-linejoin="round"/>
    <circle cx="-3" cy="12" r="1.5" fill="#3b82f6"/>
    <circle cx="3" cy="12" r="1.5" fill="#3b82f6"/>
    <path d="M-8 -6 L-12 -12" stroke="#3b82f6" stroke-width="2" stroke-linecap="round"/>
  </g>
  
  <!-- Bottom text -->
  <text x="400" y="435" font-family="system-ui" font-size="16" font-weight="600" fill="#e2e8f0" text-anchor="middle">E-Commerce Dashboard</text>
</svg>
