<svg width="800" height="450" viewBox="0 0 800 450" xmlns="http://www.w3.org/2000/svg">
  <!-- Background with subtle gradient -->
  <defs>
    <linearGradient id="bg2" x1="0%" y1="0%" x2="100%" y2="100%">
      <stop offset="0%" style="stop-color:#0f172a;stop-opacity:1" />
      <stop offset="100%" style="stop-color:#1e293b;stop-opacity:1" />
    </linearGradient>
    <linearGradient id="accent2" x1="0%" y1="0%" x2="100%" y2="100%">
      <stop offset="0%" style="stop-color:#8b5cf6;stop-opacity:0.1" />
      <stop offset="100%" style="stop-color:#7c3aed;stop-opacity:0.05" />
    </linearGradient>
  </defs>
  
  <rect width="800" height="450" fill="url(#bg2)"/>
  <rect width="800" height="450" fill="url(#accent2)"/>
  
  <!-- Main kanban board mockup -->
  <rect x="20" y="30" width="760" height="390" rx="12" fill="#ffffff" opacity="0.97"/>
  
  <!-- Top navigation bar -->
  <rect x="40" y="50" width="720" height="40" rx="8" fill="#f8fafc"/>
  <circle cx="60" cy="70" r="4" fill="#ef4444"/>
  <circle cx="80" cy="70" r="4" fill="#f59e0b"/>
  <circle cx="100" cy="70" r="4" fill="#10b981"/>
  
  <!-- Project title -->
  <rect x="160" y="58" width="120" height="24" rx="12" fill="#8b5cf6" opacity="0.2"/>
  <text x="220" y="73" font-family="system-ui" font-size="12" font-weight="700" fill="#7c3aed" text-anchor="middle">Project Alpha</text>
  
  <!-- Team avatars -->
  <circle cx="620" cy="70" r="12" fill="#e5e7eb"/>
  <circle cx="645" cy="70" r="12" fill="#dbeafe"/>
  <circle cx="670" cy="70" r="12" fill="#dcfce7"/>
  <circle cx="695" cy="70" r="12" fill="#fef3c7"/>
  <circle cx="720" cy="70" r="12" fill="#fce7f3"/>
  
  <!-- Kanban columns - wider and using full width -->
  
  <!-- To Do Column -->
  <rect x="50" y="110" width="220" height="280" rx="12" fill="#fef2f2"/>
  <rect x="65" y="125" width="80" height="20" rx="10" fill="#ef4444"/>
  <text x="105" y="138" font-family="system-ui" font-size="10" font-weight="700" fill="white" text-anchor="middle">TO DO</text>
  
  <!-- Task cards in To Do -->
  <rect x="65" y="160" width="190" height="45" rx="8" fill="white" stroke="#fecaca" stroke-width="1"/>
  <rect x="75" y="170" width="120" height="8" rx="4" fill="#374151"/>
  <rect x="75" y="185" width="90" height="6" rx="3" fill="#9ca3af"/>
  
  <rect x="65" y="215" width="190" height="45" rx="8" fill="white" stroke="#fecaca" stroke-width="1"/>
  <rect x="75" y="225" width="140" height="8" rx="4" fill="#374151"/>
  <rect x="75" y="240" width="80" height="6" rx="3" fill="#9ca3af"/>
  
  <rect x="65" y="270" width="190" height="45" rx="8" fill="white" stroke="#fecaca" stroke-width="1"/>
  <rect x="75" y="280" width="100" height="8" rx="4" fill="#374151"/>
  <rect x="75" y="295" width="110" height="6" rx="3" fill="#9ca3af"/>
  
  <!-- In Progress Column -->
  <rect x="290" y="110" width="220" height="280" rx="12" fill="#fffbeb"/>
  <rect x="305" y="125" width="100" height="20" rx="10" fill="#f59e0b"/>
  <text x="355" y="138" font-family="system-ui" font-size="10" font-weight="700" fill="white" text-anchor="middle">IN PROGRESS</text>
  
  <!-- Task cards in Progress -->
  <rect x="305" y="160" width="190" height="45" rx="8" fill="white" stroke="#fed7aa" stroke-width="1"/>
  <rect x="315" y="170" width="130" height="8" rx="4" fill="#374151"/>
  <rect x="315" y="185" width="100" height="6" rx="3" fill="#9ca3af"/>
  <!-- Progress bar -->
  <rect x="315" y="195" width="140" height="4" rx="2" fill="#fbbf24" opacity="0.3"/>
  <rect x="315" y="195" width="84" height="4" rx="2" fill="#f59e0b"/>
  
  <rect x="305" y="215" width="190" height="45" rx="8" fill="white" stroke="#fed7aa" stroke-width="1"/>
  <rect x="315" y="225" width="115" height="8" rx="4" fill="#374151"/>
  <rect x="315" y="240" width="85" height="6" rx="3" fill="#9ca3af"/>
  <!-- Progress bar -->
  <rect x="315" y="250" width="140" height="4" rx="2" fill="#fbbf24" opacity="0.3"/>
  <rect x="315" y="250" width="56" height="4" rx="2" fill="#f59e0b"/>
  
  <!-- Done Column -->
  <rect x="530" y="110" width="220" height="280" rx="12" fill="#f0f9ff"/>
  <rect x="545" y="125" width="60" height="20" rx="10" fill="#0ea5e9"/>
  <text x="575" y="138" font-family="system-ui" font-size="10" font-weight="700" fill="white" text-anchor="middle">DONE</text>
  
  <!-- Task cards in Done -->
  <rect x="545" y="160" width="190" height="45" rx="8" fill="white" stroke="#bae6fd" stroke-width="1"/>
  <rect x="555" y="170" width="110" height="8" rx="4" fill="#374151"/>
  <rect x="555" y="185" width="130" height="6" rx="3" fill="#9ca3af"/>
  <!-- Checkmark -->
  <circle cx="710" cy="180" r="8" fill="#10b981"/>
  <path d="M706 180 L709 183 L714 177" stroke="white" stroke-width="2" fill="none" stroke-linecap="round" stroke-linejoin="round"/>
  
  <rect x="545" y="215" width="190" height="45" rx="8" fill="white" stroke="#bae6fd" stroke-width="1"/>
  <rect x="555" y="225" width="105" height="8" rx="4" fill="#374151"/>
  <rect x="555" y="240" width="120" height="6" rx="3" fill="#9ca3af"/>
  <!-- Checkmark -->
  <circle cx="710" cy="235" r="8" fill="#10b981"/>
  <path d="M706 235 L709 238 L714 232" stroke="white" stroke-width="2" fill="none" stroke-linecap="round" stroke-linejoin="round"/>
  
  <rect x="545" y="270" width="190" height="45" rx="8" fill="white" stroke="#bae6fd" stroke-width="1"/>
  <rect x="555" y="280" width="95" height="8" rx="4" fill="#374151"/>
  <rect x="555" y="295" width="140" height="6" rx="3" fill="#9ca3af"/>
  <!-- Checkmark -->
  <circle cx="710" cy="290" r="8" fill="#10b981"/>
  <path d="M706 290 L709 293 L714 287" stroke="white" stroke-width="2" fill="none" stroke-linecap="round" stroke-linejoin="round"/>
  
  <!-- Task management icon in center -->
  <g transform="translate(400, 350)">
    <circle cx="0" cy="0" r="24" fill="#8b5cf6" opacity="0.15"/>
    <rect x="-12" y="-12" width="24" height="24" rx="4" fill="none" stroke="#8b5cf6" stroke-width="2"/>
    <!-- Task lines -->
    <line x1="-6" y1="-6" x2="6" y2="-6" stroke="#8b5cf6" stroke-width="1.5" stroke-linecap="round"/>
    <line x1="-6" y1="0" x2="6" y2="0" stroke="#8b5cf6" stroke-width="1.5" stroke-linecap="round"/>
    <line x1="-6" y1="6" x2="3" y2="6" stroke="#8b5cf6" stroke-width="1.5" stroke-linecap="round"/>
    <!-- Checkboxes -->
    <circle cx="-8" cy="-6" r="1.5" fill="none" stroke="#8b5cf6" stroke-width="1"/>
    <circle cx="-8" cy="0" r="1.5" fill="#8b5cf6"/>
    <circle cx="-8" cy="6" r="1.5" fill="none" stroke="#8b5cf6" stroke-width="1"/>
    <!-- Check mark in completed task -->
    <path d="M-9.5 0 L-8 1.5 L-6.5 -1" stroke="white" stroke-width="1" fill="none" stroke-linecap="round" stroke-linejoin="round"/>
  </g>
  
  <!-- Team collaboration indicator -->
  <g transform="translate(700, 350)">
    <circle cx="0" cy="0" r="6" fill="#10b981"/>
    <circle cx="-8" cy="0" r="6" fill="#3b82f6"/>
    <circle cx="8" cy="0" r="6" fill="#f59e0b"/>
    <text x="0" y="20" font-family="system-ui" font-size="8" fill="#6b7280" text-anchor="middle">3 Active</text>
  </g>
  
  <!-- Bottom text -->
  <text x="400" y="435" font-family="system-ui" font-size="16" font-weight="600" fill="#e2e8f0" text-anchor="middle">Task Management App</text>
</svg>
  <rect x="95" y="265" width="90" height="6" rx="3" fill="#9ca3af"/>
  <rect x="95" y="275" width="60" height="6" rx="3" fill="#d1d5db"/>
  
  <!-- In Progress Column -->
  <rect x="290" y="130" width="200" height="260" rx="12" fill="#fffbeb"/>
  <rect x="305" y="145" width="100" height="20" rx="10" fill="#f59e0b"/>
  <text x="355" y="158" font-family="system-ui" font-size="10" font-weight="700" fill="white" text-anchor="middle">IN PROGRESS</text>
  
  <!-- Task cards in Progress -->
  <rect x="305" y="180" width="170" height="50" rx="8" fill="white" stroke="#fed7aa" stroke-width="1"/>
  <rect x="315" y="190" width="110" height="8" rx="4" fill="#374151"/>
  <rect x="315" y="205" width="80" height="6" rx="3" fill="#9ca3af"/>
  <!-- Progress bar -->
  <rect x="315" y="215" width="120" height="4" rx="2" fill="#fbbf24" opacity="0.3"/>
  <rect x="315" y="215" width="72" height="4" rx="2" fill="#f59e0b"/>
  
  <rect x="305" y="240" width="170" height="50" rx="8" fill="white" stroke="#fed7aa" stroke-width="1"/>
  <rect x="315" y="250" width="95" height="8" rx="4" fill="#374151"/>
  <rect x="315" y="265" width="70" height="6" rx="3" fill="#9ca3af"/>
  <!-- Progress bar -->
  <rect x="315" y="275" width="120" height="4" rx="2" fill="#fbbf24" opacity="0.3"/>
  <rect x="315" y="275" width="40" height="4" rx="2" fill="#f59e0b"/>
  
  <!-- Done Column -->
  <rect x="510" y="130" width="200" height="260" rx="12" fill="#f0f9ff"/>
  <rect x="525" y="145" width="60" height="20" rx="10" fill="#0ea5e9"/>
  <text x="555" y="158" font-family="system-ui" font-size="10" font-weight="700" fill="white" text-anchor="middle">DONE</text>
  
  <!-- Task cards in Done -->
  <rect x="525" y="180" width="170" height="50" rx="8" fill="white" stroke="#bae6fd" stroke-width="1"/>
  <rect x="535" y="190" width="90" height="8" rx="4" fill="#374151"/>
  <rect x="535" y="205" width="110" height="6" rx="3" fill="#9ca3af"/>
  <!-- Checkmark -->
  <circle cx="670" cy="200" r="8" fill="#10b981"/>
  <path d="M666 200 L669 203 L674 197" stroke="white" stroke-width="2" fill="none" stroke-linecap="round" stroke-linejoin="round"/>
  
  <rect x="525" y="240" width="170" height="50" rx="8" fill="white" stroke="#bae6fd" stroke-width="1"/>
  <rect x="535" y="250" width="85" height="8" rx="4" fill="#374151"/>
  <rect x="535" y="265" width="100" height="6" rx="3" fill="#9ca3af"/>
  <!-- Checkmark -->
  <circle cx="670" cy="260" r="8" fill="#10b981"/>
  <path d="M666 260 L669 263 L674 257" stroke="white" stroke-width="2" fill="none" stroke-linecap="round" stroke-linejoin="round"/>
  
  <!-- Task management icon in center -->
  <g transform="translate(400, 280)">
    <circle cx="0" cy="0" r="24" fill="#8b5cf6" opacity="0.15"/>
    <rect x="-12" y="-12" width="24" height="24" rx="4" fill="none" stroke="#8b5cf6" stroke-width="2"/>
    <!-- Task lines -->
    <line x1="-6" y1="-6" x2="6" y2="-6" stroke="#8b5cf6" stroke-width="1.5" stroke-linecap="round"/>
    <line x1="-6" y1="0" x2="6" y2="0" stroke="#8b5cf6" stroke-width="1.5" stroke-linecap="round"/>
    <line x1="-6" y1="6" x2="3" y2="6" stroke="#8b5cf6" stroke-width="1.5" stroke-linecap="round"/>
    <!-- Checkboxes -->
    <circle cx="-8" cy="-6" r="1.5" fill="none" stroke="#8b5cf6" stroke-width="1"/>
    <circle cx="-8" cy="0" r="1.5" fill="#8b5cf6"/>
    <circle cx="-8" cy="6" r="1.5" fill="none" stroke="#8b5cf6" stroke-width="1"/>
    <!-- Check mark in completed task -->
    <path d="M-9.5 0 L-8 1.5 L-6.5 -1" stroke="white" stroke-width="1" fill="none" stroke-linecap="round" stroke-linejoin="round"/>
  </g>
  
  <!-- Team collaboration indicator -->
  <g transform="translate(680, 320)">
    <circle cx="0" cy="0" r="6" fill="#10b981"/>
    <circle cx="-8" cy="0" r="6" fill="#3b82f6"/>
    <circle cx="8" cy="0" r="6" fill="#f59e0b"/>
    <text x="0" y="20" font-family="system-ui" font-size="8" fill="#6b7280" text-anchor="middle">3 Active</text>
  </g>
  
  <!-- Bottom text -->
  <text x="400" y="430" font-family="system-ui" font-size="16" font-weight="600" fill="#e2e8f0" text-anchor="middle">Task Management App</text>
</svg>
